<svg display="none" xmlns="http://www.w3.org/2000/svg">
	<symbol viewBox="0 0 234 46" fill="none" id="logo-icon">
		<path id="StarSoft" d="M197.358 35.8755Q197.576 36 197.865 36L201.585 36Q201.787 36 201.957 35.927Q202.108 35.8623 202.234 35.7402Q202.327 35.6478 202.388 35.5378Q202.503 35.3277 202.503 35.0537L202.503 20.7202L207.17 20.7202Q207.459 20.7202 207.677 20.5957Q207.774 20.5404 207.856 20.4604Q207.949 20.368 208.01 20.258Q208.125 20.0479 208.125 19.7739L208.125 17.1855Q208.125 16.9029 208.002 16.6926Q207.943 16.5922 207.856 16.5083Q207.764 16.4158 207.654 16.3552Q207.444 16.2393 207.17 16.2393L202.503 16.2393L202.503 15.061Q202.503 13.7344 203.051 13.0479Q203.598 12.3613 205.008 12.3613L207.55 12.3613Q207.839 12.3613 208.057 12.2368Q208.154 12.1815 208.237 12.1016Q208.329 12.0091 208.39 11.8991Q208.506 11.689 208.506 11.415L208.506 8.82666Q208.506 8.54403 208.383 8.33368Q208.324 8.23332 208.237 8.14941Q208.144 8.05695 208.034 7.99627Q207.824 7.88037 207.55 7.88037L204.776 7.88037Q202.234 7.88037 200.481 8.604Q199.415 9.04622 198.661 9.80027Q198.181 10.2801 197.828 10.8862Q196.918 12.4355 196.918 14.8755L196.918 16.2393L193.95 16.2393Q193.676 16.2393 193.466 16.3552Q193.356 16.4158 193.263 16.5083Q193.189 16.5829 193.135 16.6704Q193.003 16.8879 193.003 17.1855L193.003 19.7739Q193.003 20.063 193.128 20.2808Q193.183 20.3777 193.263 20.4604Q193.346 20.5404 193.443 20.5957Q193.661 20.7202 193.95 20.7202L196.918 20.7202L196.918 35.0537Q196.918 35.3427 197.043 35.5606Q197.098 35.6575 197.178 35.7402Q197.261 35.8202 197.358 35.8755ZM66.29 35.3228Q68.7393 36.3804 72.3853 36.3804Q75.6973 36.3804 78.1836 35.4155Q80.6421 34.4523 82.0574 32.6637Q82.0734 32.6434 82.0894 32.623Q82.4897 32.1109 82.7778 31.542Q83.5181 30.0805 83.5181 28.2441Q83.5181 25.9712 82.5254 24.4683Q81.542 22.9653 79.4546 22.019Q77.3672 21.0635 74.0181 20.3862Q71.8564 19.811 70.5391 19.3379Q69.231 18.8647 68.6836 18.2432Q68.5144 18.0482 68.3975 17.8257Q68.1362 17.3284 68.1362 16.6938Q68.1362 15.8536 68.5234 15.2704Q68.7817 14.8812 69.2124 14.6064Q70.2979 13.9199 72.1626 13.9199Q73.9438 13.9199 75.0664 14.6621Q76.1413 15.3728 76.3911 16.3047Q76.4022 16.346 76.4116 16.3877Q76.6064 16.7681 76.9033 16.9258Q77.2095 17.0742 77.5898 17.0742L81.8481 17.0742Q82.0435 17.0742 82.1999 16.9961Q82.3181 16.9369 82.4141 16.833Q82.5765 16.6576 82.6252 16.4548Q82.646 16.3681 82.646 16.2764Q82.6089 15.0981 81.9224 13.8457Q81.2451 12.5933 79.9277 11.4893Q78.6196 10.3853 76.6621 9.70801Q74.7046 9.02148 72.1626 9.02148Q69.0083 9.02148 66.7261 10.0327Q64.547 10.9894 63.3067 12.6481Q63.248 12.7266 63.1914 12.8066Q62.7467 13.4325 62.4599 14.124Q61.939 15.3797 61.939 16.8516Q61.939 19.1245 62.9409 20.6646Q63.9521 22.2046 65.9468 23.1787Q67.9414 24.1436 70.7896 24.7559Q73.146 25.3218 74.5654 25.8228Q75.9941 26.3145 76.6621 26.9268Q76.9072 27.148 77.0624 27.4205Q77.3301 27.8906 77.3301 28.5132Q77.3301 29.0983 77.106 29.5789Q76.8043 30.2262 76.0962 30.6841Q74.8623 31.4819 72.3853 31.4819Q70.8638 31.4819 69.834 31.083Q68.8135 30.6841 68.2197 30.0718Q67.6353 29.4595 67.3755 28.8193Q67.1436 28.5132 66.8745 28.3091Q66.6147 28.0957 66.1138 28.0957L62.0503 28.0957Q61.8757 28.0957 61.7299 28.1605Q61.5891 28.2231 61.4751 28.3462Q61.3347 28.4983 61.2829 28.6761Q61.2524 28.7804 61.2524 28.8936Q61.2702 29.3578 61.3555 29.8094Q61.6266 31.2435 62.5791 32.5488Q63.8408 34.2559 66.29 35.3228ZM93.4032 35.2207Q95.0731 36 97.4296 36L100.732 36Q100.934 36 101.104 35.927Q101.255 35.8623 101.382 35.7402Q101.474 35.6478 101.535 35.5378Q101.651 35.3277 101.651 35.0537L101.651 32.2334Q101.651 32.0637 101.594 31.9153Q101.528 31.7393 101.382 31.5933Q101.247 31.4586 101.085 31.3913Q100.922 31.3242 100.732 31.3242L97.9584 31.3242Q96.941 31.3242 96.4087 30.8161Q96.2663 30.6801 96.1586 30.5078Q95.6483 29.6914 95.6483 28.2441L95.6483 20.7202L100.398 20.7202Q100.579 20.7202 100.735 20.6588Q100.9 20.5939 101.038 20.4604Q101.131 20.368 101.192 20.258Q101.307 20.0479 101.307 19.7739L101.307 17.1855Q101.307 16.9029 101.184 16.6926Q101.125 16.5922 101.038 16.5083Q100.892 16.3623 100.716 16.2955Q100.568 16.2393 100.398 16.2393L95.6483 16.2393L95.6483 9.96777Q95.6483 9.68514 95.525 9.4748Q95.4662 9.37443 95.3793 9.29053Q95.2868 9.19807 95.1768 9.13738Q94.9667 9.02148 94.6927 9.02148L90.9725 9.02148Q90.8068 9.02148 90.6587 9.07256Q90.4668 9.13871 90.3046 9.29053Q90.193 9.39132 90.1247 9.51585Q90.017 9.71228 90.017 9.96777L90.017 16.2393L87.0575 16.2393Q86.7835 16.2393 86.5734 16.3552Q86.4634 16.4158 86.371 16.5083Q86.2841 16.5922 86.2252 16.6926Q86.1019 16.9029 86.1019 17.1855L86.1019 19.7739Q86.1019 20.0479 86.2178 20.258Q86.2785 20.368 86.371 20.4604Q86.4537 20.5404 86.5506 20.5957Q86.7685 20.7202 87.0575 20.7202L90.017 20.7202L90.017 28.708Q90.017 31.1758 90.8705 32.8086Q91.3064 33.6336 91.9484 34.2407Q92.577 34.8352 93.4032 35.2207ZM149.7 35.3228Q152.149 36.3804 155.795 36.3804Q159.107 36.3804 161.594 35.4155Q164.052 34.4523 165.467 32.6637Q165.483 32.6434 165.499 32.623Q165.9 32.1109 166.188 31.542Q166.928 30.0805 166.928 28.2441Q166.928 25.9712 165.935 24.4683Q164.952 22.9653 162.865 22.019Q160.777 21.0635 157.428 20.3862Q155.266 19.811 153.949 19.3379Q152.641 18.8647 152.094 18.2432Q151.924 18.0482 151.808 17.8257Q151.546 17.3284 151.546 16.6938Q151.546 15.8536 151.933 15.2704Q152.192 14.8812 152.622 14.6064Q153.708 13.9199 155.573 13.9199Q157.354 13.9199 158.476 14.6621Q159.551 15.3728 159.801 16.3047Q159.812 16.346 159.822 16.3877Q160.016 16.7681 160.313 16.9258Q160.619 17.0742 161 17.0742L165.258 17.0742Q165.454 17.0742 165.61 16.9961Q165.728 16.9369 165.824 16.833Q165.987 16.6576 166.035 16.4548Q166.056 16.3681 166.056 16.2764Q166.019 15.0981 165.332 13.8457Q164.655 12.5933 163.338 11.4893Q162.03 10.3853 160.072 9.70801Q158.115 9.02148 155.573 9.02148Q152.418 9.02148 150.136 10.0327Q147.957 10.9894 146.717 12.6481Q146.658 12.7266 146.601 12.8066Q146.157 13.4325 145.87 14.124Q145.349 15.3797 145.349 16.8516Q145.349 19.1245 146.351 20.6646Q147.362 22.2046 149.357 23.1787Q151.351 24.1436 154.2 24.7559Q156.556 25.3218 157.975 25.8228Q159.404 26.3145 160.072 26.9268Q160.317 27.148 160.472 27.4205Q160.74 27.8906 160.74 28.5132Q160.74 29.0983 160.516 29.5789Q160.214 30.2262 159.506 30.6841Q158.272 31.4819 155.795 31.4819Q154.274 31.4819 153.244 31.083Q152.223 30.6841 151.63 30.0718Q151.045 29.4595 150.785 28.8193Q150.554 28.5132 150.285 28.3091Q150.025 28.0957 149.524 28.0957L145.46 28.0957Q145.286 28.0957 145.14 28.1605Q144.999 28.2231 144.885 28.3462Q144.745 28.4983 144.693 28.6761Q144.662 28.7804 144.662 28.8936Q144.68 29.3578 144.766 29.8094Q145.037 31.2435 145.989 32.5488Q147.251 34.2559 149.7 35.3228ZM217.245 35.2207Q218.915 36 221.272 36L224.574 36Q224.776 36 224.946 35.927Q225.097 35.8623 225.224 35.7402Q225.316 35.6478 225.377 35.5378Q225.493 35.3277 225.493 35.0537L225.493 32.2334Q225.493 32.0637 225.436 31.9153Q225.37 31.7393 225.224 31.5933Q225.089 31.4586 224.926 31.3913Q224.764 31.3242 224.574 31.3242L221.8 31.3242Q220.783 31.3242 220.251 30.8161Q220.108 30.6801 220.001 30.5078Q219.49 29.6914 219.49 28.2441L219.49 20.7202L224.24 20.7202Q224.421 20.7202 224.577 20.6588Q224.742 20.5939 224.88 20.4604Q224.973 20.368 225.034 20.258Q225.149 20.0479 225.149 19.7739L225.149 17.1855Q225.149 16.9029 225.026 16.6926Q224.967 16.5922 224.88 16.5083Q224.734 16.3623 224.558 16.2955Q224.41 16.2393 224.24 16.2393L219.49 16.2393L219.49 9.96777Q219.49 9.68514 219.367 9.4748Q219.308 9.37443 219.221 9.29053Q219.129 9.19807 219.019 9.13738Q218.809 9.02148 218.535 9.02148L214.814 9.02148Q214.649 9.02148 214.501 9.07256Q214.309 9.13871 214.147 9.29053Q214.035 9.39132 213.967 9.51585Q213.859 9.71228 213.859 9.96777L213.859 16.2393L210.899 16.2393Q210.625 16.2393 210.415 16.3552Q210.305 16.4158 210.213 16.5083Q210.126 16.5922 210.067 16.6926Q209.944 16.9029 209.944 17.1855L209.944 19.7739Q209.944 20.0479 210.06 20.258Q210.12 20.368 210.213 20.4604Q210.296 20.5404 210.393 20.5957Q210.61 20.7202 210.899 20.7202L213.859 20.7202L213.859 28.708Q213.859 31.1758 214.712 32.8086Q215.148 33.6336 215.79 34.2407Q216.419 34.8352 217.245 35.2207ZM107.922 35.6011Q109.517 36.3804 111.53 36.3804Q113.089 36.3804 114.249 36Q115.408 35.6196 116.243 34.998Q117.078 34.3672 117.57 33.6436L117.57 35.0537Q117.57 35.3427 117.695 35.5606Q117.75 35.6575 117.83 35.7402Q117.956 35.8623 118.107 35.927Q118.278 36 118.479 36L122.209 36Q122.506 36 122.724 35.868Q122.811 35.8148 122.886 35.7402Q122.978 35.6478 123.039 35.5378Q123.155 35.3277 123.155 35.0537L123.155 23.3086Q123.155 21.75 122.663 20.4048Q122.433 19.7706 122.085 19.2096Q121.689 18.5725 121.142 18.0298Q120.112 17 118.405 16.4341Q116.698 15.8589 114.304 15.8589Q111.985 15.8589 110.389 16.4341Q108.794 17 107.764 17.8535Q106.743 18.707 106.242 19.5884Q105.751 20.4604 105.751 21.1006Q105.73 21.2877 105.787 21.4473Q105.835 21.5804 105.936 21.6943Q105.974 21.7338 106.017 21.7668Q106.236 21.9355 106.586 21.9355L110.195 21.9355Q110.478 21.9355 110.696 21.8162Q110.921 21.6933 111.076 21.4438Q111.289 21.0364 111.589 20.7088Q111.877 20.3949 112.245 20.1543Q113.006 19.6626 114.267 19.6626Q115.974 19.6626 116.652 20.4604Q117.338 21.2583 117.338 22.7334L117.338 23.4199L112.365 24.1436Q108.794 24.7095 106.604 26.2681Q105.533 27.0337 104.988 28.0747Q104.424 29.1529 104.424 30.5264Q104.424 31.3311 104.654 32.0636Q104.89 32.8176 105.37 33.4951Q105.524 33.7092 105.695 33.909Q106.583 34.9475 107.922 35.6011ZM175.097 35.3413Q177.231 36.3804 180.385 36.3804Q183.502 36.3804 185.627 35.3413Q187.073 34.6305 188.051 33.5104Q188.515 32.9784 188.874 32.354Q189.996 30.415 190.108 27.8267Q190.191 27.0659 190.191 26.1011Q190.191 25.1362 190.108 24.4126Q189.996 21.7871 188.818 19.8667Q188.423 19.2227 187.92 18.6778Q186.924 17.5979 185.506 16.9072Q183.382 15.8589 180.385 15.8589Q177.342 15.8589 175.208 16.9072Q173.818 17.5874 172.832 18.6452Q172.312 19.2034 171.905 19.8667Q170.737 21.7871 170.616 24.4126Q170.579 25.1362 170.579 26.1011Q170.579 27.0659 170.616 27.8267Q170.737 30.415 171.85 32.354Q172.226 33.0037 172.715 33.5533Q173.684 34.6442 175.097 35.3413ZM129.051 35.927Q129.221 36 129.423 36L133.412 36Q133.701 36 133.919 35.8755Q134.016 35.8202 134.099 35.7402Q134.191 35.6478 134.252 35.5378Q134.368 35.3277 134.368 35.0537L134.368 24.9785Q134.368 23.4674 135.109 22.567Q135.205 22.4502 135.314 22.3438Q135.448 22.2119 135.597 22.0986Q136.504 21.4067 137.939 21.4067L141.279 21.4067Q141.481 21.4067 141.651 21.3337Q141.802 21.269 141.929 21.147Q142.021 21.0545 142.082 20.9445Q142.198 20.7345 142.198 20.4604L142.198 17.1855Q142.198 16.9029 142.074 16.6926Q142.016 16.5922 141.929 16.5083Q141.794 16.3736 141.631 16.3064Q141.469 16.2393 141.279 16.2393L139.646 16.2393Q137.828 16.2393 136.436 16.8887Q135.717 17.2218 135.113 17.7007Q134.557 18.142 134.099 18.707L134.099 17.1855Q134.099 17.0573 134.064 16.9391Q133.999 16.7151 133.811 16.5269Q133.649 16.3591 133.452 16.2892Q133.311 16.2393 133.152 16.2393L129.423 16.2393Q129.253 16.2393 129.106 16.2963Q128.923 16.3673 128.773 16.5269Q128.622 16.6948 128.559 16.8911Q128.514 17.0311 128.514 17.1855L128.514 35.0537Q128.514 35.3427 128.638 35.5606Q128.693 35.6575 128.773 35.7402Q128.9 35.8623 129.051 35.927ZM182.759 31.4777Q181.859 32.1963 180.385 32.1963Q178.922 32.1963 178.007 31.488Q177.756 31.2936 177.546 31.0459Q176.581 29.8862 176.507 27.6411Q176.47 27.0659 176.47 26.1196Q176.47 25.1733 176.507 24.5981Q176.581 22.3994 177.546 21.2212Q177.779 20.94 178.062 20.7259Q178.965 20.043 180.385 20.043Q181.816 20.043 182.706 20.7368Q182.976 20.9472 183.196 21.2212Q184.142 22.3994 184.226 24.5981Q184.263 25.1733 184.263 26.1196Q184.263 27.0659 184.226 27.6411Q184.142 29.8862 183.196 31.0459Q182.998 31.2871 182.759 31.4777ZM115.203 31.9437Q114.251 32.4282 113.052 32.4282Q112.405 32.4282 111.806 32.2572Q111.667 32.2175 111.53 32.1685Q110.864 31.9208 110.442 31.4532Q110.406 31.4127 110.371 31.3706Q110.195 31.1543 110.091 30.9079Q109.935 30.5416 109.935 30.1089Q109.935 29.817 110.018 29.5513Q110.216 28.9217 110.881 28.439Q111.837 27.7524 113.887 27.4092L117.422 26.8433L117.422 27.4834Q117.422 29.1626 116.846 30.2666Q116.423 31.0852 115.761 31.5925Q115.538 31.7637 115.288 31.8994Q115.246 31.922 115.203 31.9437Z" fill="#292929" fill-opacity="1.000000" fill-rule="evenodd"/>
	<rect id="Rainbow/Fill-Dark/Category" width="47.655788" height="44.516129" transform="translate(0.000000 1.483887)" fill="#FFFFFF" fill-opacity="0"/>
	<path id="Vector" d="M43.6846 33.0161C43.6846 38.1381 39.2397 42.2903 33.7563 42.2903C28.2729 42.2903 23.8281 38.1381 23.8281 33.0161C23.8281 27.8942 28.2729 23.7419 33.7563 23.7419C39.2397 23.7419 43.6846 27.8942 43.6846 33.0161Z" fill="#01A4EF" fill-opacity="1.000000" fill-rule="evenodd"/>
	<path id="Vector" d="M43.6841 11.6855C43.6841 15.2709 40.5728 18.1774 36.7344 18.1774C32.896 18.1774 29.7847 15.2709 29.7847 11.6855C29.7847 8.1001 32.896 5.19354 36.7344 5.19354C40.5728 5.19354 43.6841 8.1001 43.6841 11.6855Z" fill="#292929" fill-opacity="1.000000" fill-rule="evenodd"/>
	<path id="Vector" d="M17.9302 35.7428C17.9302 39.3282 14.8188 42.2347 10.9805 42.2347C7.14209 42.2347 4.03076 39.3282 4.03076 35.7428C4.03076 32.1574 7.14209 29.2509 10.9805 29.2509C14.8188 29.2509 17.9302 32.1574 17.9302 35.7428Z" fill="#292929" fill-opacity="1.000000" fill-rule="evenodd"/>
	<path id="Vector" d="M23.8276 14.4677C23.8276 19.5897 19.3828 23.7419 13.8994 23.7419C8.41602 23.7419 3.97119 19.5897 3.97119 14.4677C3.97119 9.34576 8.41602 5.19354 13.8994 5.19354C19.3828 5.19354 23.8276 9.34576 23.8276 14.4677Z" fill="#01A4EF" fill-opacity="1.000000" fill-rule="evenodd"/>
	</symbol>
</svg>